<svg xmlns="http://www.w3.org/2000/svg" xmlns:xlink="http://www.w3.org/1999/xlink" width="26" height="26" version="1.1" viewBox="0 0 26 26"><title>lpt</title><desc>Created with Sketch.</desc><g id="Page-1" fill="none" fill-rule="evenodd" stroke="none" stroke-width="1"><g id="lpt" transform="translate(1.147965, 1.147965)"><g id="Group" fill="currentColor" transform="translate(8.138101, 6.658446)"><polygon id="Path" points="10.18 6.111 10.18 4.261 8.33 4.261 8.33 6.111"/><g id="Path"><polygon points=".059 6.111 1.909 6.111 1.909 4.261 .059 4.261"/><polygon points=".059 1.983 1.909 1.983 1.909 .133 .059 .133"/><polygon points=".059 10.254 1.909 10.254 1.909 8.404 .059 8.404"/></g><g id="Path" transform="translate(4.143033, 2.071517)"><polygon points=".059 1.938 1.909 1.938 1.909 .089 .059 .089"/><polygon points=".059 6.081 1.909 6.081 1.909 4.232 .059 4.232"/></g></g><polygon id="Path" stroke="currentColor" points="23.689 11.852 20.227 20.227 11.852 23.689 3.492 20.227 .015 11.852 3.492 3.477 11.852 .015 20.227 3.477"/></g></g></svg>