<svg xmlns="http://www.w3.org/2000/svg" xmlns:xlink="http://www.w3.org/1999/xlink" width="41" height="38" version="1.1" viewBox="0 0 41 38"><title>metamask</title><desc>Created with Sketch.</desc><g id="Page-1" fill="none" fill-rule="evenodd" stroke="none" stroke-width="1"><g id="metamask" fill-rule="nonzero"><polygon id="Path" fill="#E2761B" points="38.266 .541 22.794 12.052 25.655 5.261"/><polygon id="Path" fill="#E4761B" points="2.547 .541 17.895 12.161 15.174 5.261"/><polygon id="Path" fill="#E4761B" points="32.699 27.223 28.578 33.547 37.396 35.976 39.93 27.363"/><polygon id="Path" fill="#E4761B" points=".914 27.363 3.433 35.976 12.25 33.547 8.129 27.223"/><polygon id="Path" fill="#E4761B" points="11.753 16.538 9.296 20.26 18.051 20.65 17.74 11.226"/><polygon id="Path" fill="#E4761B" points="29.06 16.538 22.996 11.117 22.794 20.65 31.533 20.26"/><polygon id="Path" fill="#E4761B" points="12.25 33.547 17.506 30.977 12.966 27.425"/><polygon id="Path" fill="#E4761B" points="23.307 30.977 28.578 33.547 27.847 27.425"/><polygon id="Path" fill="#D7C1B3" points="28.578 33.547 23.306 30.977 23.726 34.419 23.68 35.867"/><polygon id="Path" fill="#D7C1B3" points="12.25 33.547 17.148 35.867 17.117 34.419 17.506 30.977"/><polygon id="Path" fill="#233447" points="17.226 25.151 12.841 23.858 15.936 22.441"/><polygon id="Path" fill="#233447" points="23.586 25.151 24.877 22.441 27.987 23.858"/><polygon id="Path" fill="#CD6116" points="12.25 33.547 12.996 27.223 8.129 27.363"/><polygon id="Path" fill="#CD6116" points="27.832 27.223 28.578 33.547 32.699 27.363"/><polygon id="Path" fill="#CD6116" points="31.533 20.26 22.794 20.65 23.602 25.151 24.893 22.441 28.003 23.858"/><polygon id="Path" fill="#CD6116" points="12.841 23.858 15.951 22.441 17.226 25.151 18.05 20.65 9.295 20.26"/><polygon id="Path" fill="#E4751F" points="9.295 20.26 12.965 27.425 12.841 23.858"/><polygon id="Path" fill="#E4751F" points="28.003 23.858 27.847 27.425 31.533 20.26"/><polygon id="Path" fill="#E4751F" points="18.05 20.65 17.226 25.151 18.253 30.463 18.486 23.469"/><polygon id="Path" fill="#E4751F" points="22.793 20.65 22.373 23.453 22.56 30.463 23.602 25.151"/><polygon id="Path" fill="#F6851B" points="23.602 25.151 22.56 30.462 23.306 30.977 27.847 27.425 28.003 23.858"/><polygon id="Path" fill="#F6851B" points="12.841 23.858 12.966 27.425 17.506 30.977 18.253 30.462 17.226 25.151"/><polygon id="Path" fill="#C0AD9E" points="23.68 35.867 23.726 34.419 23.338 34.076 17.475 34.076 17.117 34.419 17.148 35.867 12.25 33.547 13.961 34.948 17.428 37.363 23.384 37.363 26.868 34.948 28.578 33.547"/><polygon id="Path" fill="#161616" points="23.307 30.977 22.56 30.462 18.253 30.462 17.506 30.977 17.117 34.419 17.475 34.076 23.338 34.076 23.726 34.419"/><polygon id="Path" fill="#763D16" points="38.919 12.8 40.241 6.445 38.266 .541 23.307 11.662 29.06 16.538 37.193 18.921 38.997 16.818 38.22 16.257 39.464 15.12 38.5 14.373 39.744 13.422"/><polygon id="Path" fill="#763D16" points=".587 6.445 1.909 12.8 1.069 13.422 2.313 14.373 1.365 15.12 2.609 16.257 1.831 16.818 3.62 18.921 11.752 16.538 17.506 11.662 2.547 .541"/><polygon id="Path" fill="#F6851B" points="37.193 18.921 29.06 16.538 31.533 20.26 27.847 27.425 32.699 27.363 39.93 27.363"/><polygon id="Path" fill="#F6851B" points="11.753 16.538 3.62 18.921 .914 27.363 8.129 27.363 12.966 27.425 9.296 20.26"/><polygon id="Path" fill="#F6851B" stroke="#F6851B" stroke-linecap="round" stroke-linejoin="round" points="22.793 20.65 23.306 11.662 25.67 5.261 15.174 5.261 17.506 11.662 18.05 20.65 18.237 23.485 18.253 30.462 22.56 30.462 22.591 23.485"/></g></g></svg>