<svg xmlns="http://www.w3.org/2000/svg" xmlns:xlink="http://www.w3.org/1999/xlink" width="18" height="18" version="1.1" viewBox="0 0 18 18"><title>Shape</title><desc>Created with Sketch.</desc><g id="Page-1" fill="none" fill-rule="evenodd" stroke="none" stroke-width="1"><g id="power" fill="currentColor" fill-rule="nonzero"><path id="Shape" d="M10,0 L8,0 L8,10 L10,10 L10,0 Z M14.83,2.17 L13.41,3.59 C14.99,4.86 16,6.81 16,9 C16,12.87 12.87,16 9,16 C5.13,16 2,12.87 2,9 C2,6.81 3.01,4.86 4.58,3.58 L3.17,2.17 C1.23,3.82 0,6.26 0,9 C0,13.97 4.03,18 9,18 C13.97,18 18,13.97 18,9 C18,6.26 16.77,3.82 14.83,2.17 Z"/></g></g></svg>