<svg xmlns="http://www.w3.org/2000/svg" xmlns:xlink="http://www.w3.org/1999/xlink" version="1.1" viewBox="0 0 24 24"><title>wallet</title><g id="Page-1" fill="none" fill-rule="evenodd" stroke="none" stroke-width="1"><g id="wallet"><polygon id="Path" points="0 0 24 0 24 24 0 24"/><path id="Shape" fill="currentColor" fill-rule="nonzero" d="M21,7.28 L21,5 C21,3.9 20.1,3 19,3 L5,3 C3.89,3 3,3.9 3,5 L3,19 C3,20.1 3.89,21 5,21 L19,21 C20.1,21 21,20.1 21,19 L21,16.72 C21.59,16.37 22,15.74 22,15 L22,9 C22,8.26 21.59,7.63 21,7.28 Z M20,9 L20,15 L13,15 L13,9 L20,9 Z M5,19 L5,5 L19,5 L19,7 L13,7 C11.9,7 11,7.9 11,9 L11,15 C11,16.1 11.9,17 13,17 L19,17 L19,19 L5,19 Z"/><circle id="Oval" cx="16" cy="12" r="1.5" fill="currentColor" fill-rule="nonzero"/></g></g></svg>